# Blender 3.2.1
# www.blender.org
v 0.186810 -0.186810 0.824266
v 0.000000 -0.264190 0.824266
v -0.186810 -0.186810 0.824266
v -0.264189 -0.000000 0.824266
v -0.186810 0.186810 0.824266
v 0.000000 0.264189 0.824266
v 0.186810 0.186810 0.824266
v 0.264189 -0.000000 0.824266
v 0.156217 -0.156217 -0.300000
v 0.000000 -0.220924 -0.300000
v -0.156217 -0.156217 -0.300000
v -0.220924 0.000000 -0.300000
v -0.156217 0.156217 -0.300000
v 0.000000 0.220924 -0.300000
v 0.156217 0.156217 -0.300000
v 0.220924 0.000000 -0.300000
v 0.000000 -0.000000 0.824266
v 0.321599 -0.321599 -0.300000
v 0.000000 -0.454809 -0.300000
v -0.321599 -0.321599 -0.300000
v -0.454809 0.000000 -0.300000
v -0.321599 0.321599 -0.300000
v 0.000000 0.454810 -0.300000
v 0.321599 0.321599 -0.300000
v 0.454809 0.000000 -0.300000
v 0.000000 0.000000 -0.970298
vn 0.3824 -0.9233 -0.0355
vn -0.3824 -0.9233 -0.0355
vn -0.9233 -0.3824 -0.0355
vn -0.9233 0.3824 -0.0355
vn -0.3824 0.9233 -0.0355
vn 0.3824 0.9233 -0.0355
vn 0.9233 0.3824 -0.0355
vn 0.9233 -0.3824 -0.0355
vn -0.0000 -0.0000 1.0000
vn 0.3242 -0.7828 -0.5311
vn -0.3242 -0.7828 -0.5311
vn -0.7828 -0.3242 -0.5311
vn -0.7828 0.3242 -0.5311
vn -0.3242 0.7828 -0.5311
vn 0.3242 0.7828 -0.5311
vn 0.7828 0.3242 -0.5311
vn 0.7828 -0.3242 -0.5311
vt 0.247243 0.310785
vt 0.247243 0.310785
vt 0.247243 0.310785
vt 0.247243 0.310785
vt 0.247243 0.310785
vt 0.247243 0.310785
vt 0.247243 0.310785
vt 0.247243 0.310785
vt 0.247243 0.310785
vt 0.247243 0.310785
vt 0.247243 0.310785
vt 0.247243 0.310785
vt 0.247243 0.310785
vt 0.247243 0.310785
vt 0.247243 0.310785
vt 0.247243 0.310785
vt 0.247243 0.310785
vt 0.247243 0.310785
vt 0.247243 0.310785
vt 0.247243 0.310785
vt 0.247243 0.310785
vt 0.247243 0.310785
vt 0.247243 0.310785
vt 0.247243 0.310785
vt 0.247243 0.310785
vt 0.247243 0.310785
s off
f 1/1/1 2/2/1 10/10/1 9/9/1
f 2/2/2 3/3/2 11/11/2 10/10/2
f 3/3/3 4/4/3 12/12/3 11/11/3
f 4/4/4 5/5/4 13/13/4 12/12/4
f 5/5/5 6/6/5 14/14/5 13/13/5
f 6/6/6 7/7/6 15/15/6 14/14/6
f 7/7/7 8/8/7 16/16/7 15/15/7
f 8/8/8 1/1/8 9/9/8 16/16/8
f 2/2/9 1/1/9 17/17/9
f 3/3/9 2/2/9 17/17/9
f 4/4/9 3/3/9 17/17/9
f 5/5/9 4/4/9 17/17/9
f 6/6/9 5/5/9 17/17/9
f 7/7/9 6/6/9 17/17/9
f 8/8/9 7/7/9 17/17/9
f 1/1/9 8/8/9 17/17/9
f 9/9/9 10/10/9 19/19/9 18/18/9
f 10/10/9 11/11/9 20/20/9 19/19/9
f 11/11/9 12/12/9 21/21/9 20/20/9
f 12/12/9 13/13/9 22/22/9 21/21/9
f 13/13/9 14/14/9 23/23/9 22/22/9
f 14/14/9 15/15/9 24/24/9 23/23/9
f 15/15/9 16/16/9 25/25/9 24/24/9
f 16/16/9 9/9/9 18/18/9 25/25/9
f 18/18/10 19/19/10 26/26/10
f 19/19/11 20/20/11 26/26/11
f 20/20/12 21/21/12 26/26/12
f 21/21/13 22/22/13 26/26/13
f 22/22/14 23/23/14 26/26/14
f 23/23/15 24/24/15 26/26/15
f 24/24/16 25/25/16 26/26/16
f 25/25/17 18/18/17 26/26/17
