# Blender 3.4.1
# www.blender.org
o SM_Env_Sidewalk_Corner_01_SF
v -1.855591 0.069697 2.499992
v -1.804871 0.000000 2.499992
v -2.169952 0.069697 2.499992
v -0.577209 0.000000 2.499992
v -2.331108 0.000000 2.499992
v -2.271553 0.061841 2.499992
v 1.110298 0.000001 2.500000
v -2.225498 0.000000 0.437111
v -2.102566 0.061841 0.417068
v -1.978729 0.069697 0.444824
v -1.882881 0.069697 0.463268
v -1.802940 0.069697 0.958965
v -1.729286 0.000000 1.049694
v 0.982849 -0.036160 1.082165
v 1.054123 0.000001 1.075573
v -1.695992 0.000000 0.925937
v 0.966660 0.000001 0.992435
v 1.128021 0.008383 2.473389
v 1.090302 -0.007455 2.473587
v -0.580688 0.000000 2.439487
v -1.804871 0.000000 2.436501
v -1.864304 0.079887 2.473587
v -2.173927 0.076344 2.473587
v -2.271553 0.061841 2.473587
v -2.331108 0.000000 2.473587
v 2.499977 0.000001 2.500000
v 2.499985 0.069697 -1.855583
v 2.499985 0.000001 -1.804863
v 2.499985 0.069697 -2.169945
v 2.499977 0.000001 -1.426216
v 2.499985 0.000001 -2.331100
v 2.499985 0.061842 -2.271545
v 2.499977 0.000001 1.103474
v 0.746056 0.000001 -2.229683
v 0.762283 0.061842 -2.100986
v 0.746780 0.069697 -1.958538
v 0.972145 0.069697 -1.839497
v 0.972145 0.069697 -1.750992
v 0.916016 0.000001 -1.666054
v 1.018349 0.000001 -1.689453
v 1.054115 0.017936 1.022152
v 2.466377 0.000001 1.130184
v 2.466377 0.000001 1.076763
v 2.452629 0.000001 -1.406818
v 2.452682 0.000001 -1.804863
v 2.466377 0.069697 -1.852051
v 2.451660 0.069697 -2.169945
v 2.459366 0.061842 -2.271545
v 2.466377 -0.003382 -2.331673
v 2.466377 0.000001 2.473785
v -0.967346 0.000000 -0.957371
v -1.030121 0.069697 -1.048992
v -1.117943 0.069697 -1.141235
v -1.218460 0.069697 -1.267994
v -1.339798 0.061841 -1.377914
v -1.498528 0.000000 -1.525475
v -0.133766 0.000000 -1.451790
v -0.136330 0.069697 -1.540028
v -0.187820 0.069697 -1.649967
v -0.324738 0.069697 -1.791054
v -0.426083 0.061841 -1.871368
v -0.415230 0.000000 -1.990391
v -0.565765 0.000000 -2.049744
v -1.428589 0.000000 -0.133350
v -1.510910 0.069697 -0.169815
v -1.653259 0.069697 -0.325470
v -1.753731 0.069697 -0.377090
v -1.827122 0.061841 -0.525020
v -1.975868 0.000000 -0.481380
v -1.989262 0.000000 -0.668819
v -1.449619 0.061841 -1.479740
v -0.579777 0.061841 -1.969704
v -1.895531 0.061841 -0.679932
vn -0.7203 0.6937 -0.0000
vn -0.1105 0.9850 0.1323
vn -0.0054 0.9524 0.3049
vn 0.8039 0.5946 -0.0105
vn -0.0000 1.0000 -0.0000
vn 0.0031 0.9963 -0.0863
vn -0.3868 0.9216 0.0327
vn 0.5724 0.8054 0.1540
vn 0.0036 0.9859 0.1673
vn -0.4297 0.9028 0.0159
vn 0.0102 0.9998 -0.0149
vn 0.6630 0.7477 0.0361
vn 0.8083 0.5880 0.0288
vn -0.0065 1.0000 -0.0035
vn -0.0042 1.0000 -0.0023
vn -0.0085 1.0000 -0.0045
vn -0.0991 0.9950 -0.0105
vn -0.5635 0.8253 -0.0378
vn 0.0563 0.5521 0.8318
vn 0.0586 0.6823 0.7287
vn -0.0001 0.9862 0.1656
vn -0.0073 0.9979 -0.0649
vn -0.0113 0.9978 -0.0658
vn -0.0077 0.9979 -0.0650
vn -0.0435 0.8298 -0.5563
vn 0.0031 1.0000 -0.0031
vn 0.0029 1.0000 -0.0029
vn 0.0011 1.0000 -0.0011
vn 0.0022 1.0000 -0.0011
vn -0.0010 1.0000 0.0005
vn 0.0016 1.0000 -0.0008
vn 0.0067 1.0000 -0.0035
vn 0.1569 0.7101 0.6864
vn -0.0940 0.9956 -0.0018
vn -0.3839 0.8303 0.4039
vn 0.0358 0.5721 0.8194
vn -0.0000 0.9970 -0.0771
vn -0.0256 0.6847 -0.7284
vn -0.2896 0.9074 0.3047
vn 0.0030 0.9878 0.1558
vn -0.4349 0.8921 -0.1227
vn -0.0635 0.9978 -0.0180
vn 0.5846 0.7974 0.1495
vn 0.2945 0.8042 0.5163
vn -0.0280 0.9984 -0.0497
vn 0.1272 0.7531 0.6455
vn -0.0116 0.9978 -0.0659
vn -0.0885 0.8919 -0.4434
vn 0.5195 0.8047 0.2873
vn -0.0454 0.9986 -0.0266
vn 0.0333 0.9994 -0.0054
vn -0.3425 0.7157 -0.6087
vn 0.2528 0.8357 -0.4876
vn -0.5735 0.7522 -0.3243
vn -0.4333 0.8953 0.1035
vt 0.102497 0.250206
vt 0.102497 0.250206
vt 0.102497 0.250206
vt 0.102497 0.250206
vt 0.102705 0.270298
vt 0.102497 0.250206
vt 0.102497 0.250206
vt 0.102705 0.270298
vt 0.102318 0.277089
vt 0.102183 0.278454
vt 0.100109 0.279437
vt 0.102183 0.278454
vt 0.100109 0.279437
vt 0.102183 0.278454
vt 0.100109 0.279437
vt 0.101578 0.277180
vt 0.101578 0.277180
vt 0.102183 0.278454
vt 0.102497 0.272685
vt 0.101578 0.277180
vt 0.102183 0.278454
vt 0.102497 0.272685
vt 0.102705 0.270298
vt 0.102318 0.298545
vt 0.102183 0.278454
vt 0.100758 0.304666
vt 0.102318 0.298545
vt 0.102705 0.270298
vt 0.102318 0.298545
vt 0.102705 0.270298
vt 0.102497 0.272685
vt 0.102705 0.270298
vt 0.101578 0.277180
vt 0.101578 0.301943
vt 0.102705 0.270298
vt 0.101578 0.301943
vt 0.102705 0.270298
vt 0.102318 0.298545
vt 0.102318 0.277089
vt 0.102705 0.270298
vt 0.102318 0.298545
vt 0.102497 0.250206
vt 0.102705 0.270298
vt 0.102318 0.298545
vt 0.100758 0.304666
vt 0.102497 0.250206
vt 0.102183 0.278454
vt 0.100758 0.304666
vt 0.102497 0.250206
vt 0.102183 0.278454
vt 0.102497 0.250206
vt 0.102183 0.278454
vt 0.102497 0.250206
vt 0.102183 0.278454
vt 0.102497 0.250206
vt 0.102183 0.278454
vt 0.102705 0.270298
vt 0.102318 0.277089
vt 0.102497 0.250206
vt 0.102497 0.250206
vt 0.102497 0.250206
vt 0.102705 0.270298
vt 0.102497 0.250206
vt 0.102497 0.250206
vt 0.102497 0.250206
vt 0.102705 0.270298
vt 0.102183 0.278454
vt 0.100109 0.279437
vt 0.102183 0.278454
vt 0.100109 0.279437
vt 0.102183 0.278454
vt 0.101578 0.277180
vt 0.100109 0.279437
vt 0.101578 0.277180
vt 0.102183 0.278454
vt 0.102051 0.276850
vt 0.102497 0.272685
vt 0.101578 0.277180
vt 0.102183 0.278454
vt 0.102497 0.272685
vt 0.102705 0.270298
vt 0.101578 0.301943
vt 0.101578 0.277180
vt 0.102051 0.276850
vt 0.102318 0.298545
vt 0.102497 0.272685
vt 0.102705 0.270298
vt 0.100758 0.304666
vt 0.102318 0.298545
vt 0.102705 0.270298
vt 0.102318 0.298545
vt 0.102705 0.270298
vt 0.102318 0.298545
vt 0.102705 0.270298
vt 0.102318 0.298545
vt 0.102705 0.270298
vt 0.102497 0.250206
vt 0.100758 0.304666
vt 0.102183 0.278454
vt 0.102051 0.276850
vt 0.102497 0.250206
vt 0.100758 0.304666
vt 0.102497 0.250206
vt 0.102183 0.278454
vt 0.102183 0.278454
vt 0.102497 0.250206
vt 0.102183 0.278454
vt 0.102497 0.250206
vt 0.102183 0.278454
vt 0.102497 0.250206
vt 0.102318 0.298545
vt 0.102705 0.270298
vt 0.102318 0.277089
vt 0.101578 0.301943
vt 0.101578 0.277180
vt 0.101578 0.277180
vt 0.101578 0.277180
vt 0.101578 0.277180
vt 0.100109 0.279437
vt 0.100109 0.279437
vt 0.100109 0.279437
vt 0.101578 0.301943
vt 0.101578 0.277180
vt 0.101578 0.277180
vt 0.101578 0.277180
vt 0.101578 0.277180
vt 0.100109 0.279437
vt 0.100109 0.279437
vt 0.100109 0.279437
vt 0.100109 0.279437
vt 0.101578 0.301943
vt 0.101578 0.277180
vt 0.101578 0.277180
vt 0.101578 0.277180
vt 0.101578 0.277180
vt 0.100109 0.279437
vt 0.100109 0.279437
vt 0.100109 0.279437
vt 0.100109 0.279437
vt 0.100109 0.279437
vt 0.100109 0.279437
vt 0.100109 0.279437
s 1
f 24/53/1 25/55/1 5/6/1 6/7/1
f 23/51/2 24/53/2 6/7/2 3/3/2
f 22/49/3 23/51/3 3/3/3 1/1/3
f 21/46/4 22/49/4 1/1/4 2/2/4
f 20/42/5 21/46/5 2/2/5 4/4/5
f 19/40/6 20/43/6 4/5/6 7/8/6
f 18/37/7 19/40/7 7/8/7
f 16/31/8 12/19/8 13/22/8
f 17/35/9 16/32/9 13/23/9 14/28/9
f 14/28/10 19/40/10 18/37/10 15/30/10
f 14/27/11 13/24/11 20/44/11 19/41/11
f 13/25/12 12/21/12 21/47/12
f 12/21/13 22/50/13 21/47/13
f 11/18/14 10/14/15 23/52/16 22/50/16
f 10/14/17 9/12/17 24/54/17 23/52/17
f 9/12/18 8/10/18 25/56/18 24/54/18
f 45/99/19 46/104/19 38/79/19
f 40/84/20 45/100/20 38/76/20
f 46/104/5 47/105/5 36/71/5 37/75/5
f 42/92/21 43/94/21 41/90/21 15/30/21
f 47/105/22 48/107/22 35/69/23 36/71/24
f 48/107/25 49/109/25 34/67/25 35/69/25
f 18/38/26 50/111/27 42/91/28 15/29/26
f 43/93/29 44/95/30 40/85/31 41/89/32
f 40/86/33 38/77/33 39/80/33
f 41/90/34 40/87/34 39/81/34 17/35/34
f 15/30/35 17/35/35 14/28/35
f 33/66/5 42/92/28 50/112/27 26/57/5
f 33/66/5 43/94/29 42/92/28
f 30/62/5 44/96/30 43/94/29 33/66/5
f 28/60/5 45/101/5 44/97/30 30/63/5
f 27/59/36 46/103/36 45/101/36 28/60/36
f 29/61/5 47/106/5 46/103/5 27/59/5
f 32/65/37 48/108/37 47/106/37 29/61/37
f 31/64/38 49/110/38 48/108/38 32/65/38
f 15/30/39 41/90/39 17/35/39
f 26/58/40 50/113/40 18/39/40 7/9/40
f 8/11/41 9/13/41 68/137/41 69/138/41
f 9/13/42 10/15/42 67/136/42 68/137/42
f 10/16/15 11/17/14 66/134/5 67/135/5
f 11/17/14 12/20/5 65/133/5 66/134/5
f 12/20/43 16/33/43 64/132/43 65/133/43
f 16/34/5 17/36/5 51/114/5 64/131/5
f 52/116/44 51/115/44 57/123/44 58/124/44
f 53/117/5 52/116/5 58/124/5 59/125/5
f 54/118/5 53/117/5 59/125/5 60/126/5
f 55/120/45 54/119/45 60/127/45 61/128/45
f 51/114/5 17/36/5 39/82/5 57/122/5
f 72/141/5 71/140/5 55/120/5 61/128/5
f 13/26/5 21/48/5 20/45/5
f 58/124/46 57/123/46 39/83/46 38/78/46
f 59/125/5 58/124/5 38/78/5 37/74/5
f 60/126/5 59/125/5 37/74/5 36/72/5
f 61/128/47 60/127/47 36/73/24 35/70/23
f 62/129/48 61/128/48 35/70/48 34/68/48
f 65/133/49 64/132/49 51/115/49 52/116/49
f 66/134/5 65/133/5 52/116/5 53/117/5
f 67/135/5 66/134/5 53/117/5 54/118/5
f 68/137/50 67/136/50 54/119/50 55/120/50
f 71/140/5 73/142/5 68/137/5 55/120/5
f 44/98/30 45/102/5 40/88/31
f 12/21/51 11/18/51 22/50/51
f 38/79/5 46/104/5 37/75/5
f 63/130/52 56/121/52 71/140/52 72/141/52
f 62/129/53 63/130/53 72/141/53 61/128/53
f 56/121/54 70/139/54 73/142/54 71/140/54
f 70/139/55 69/138/55 68/137/55 73/142/55
