# Blender 3.4.1
# www.blender.org
o SM_Env_Railing_02_Pillar
v 0.139160 0.798555 -0.139167
v 0.139031 0.808508 0.139081
v 0.109612 0.068216 -0.125910
v 0.119965 0.050602 0.119970
v -0.119968 0.050602 -0.119971
v -0.127353 0.066062 0.117855
v -0.137348 0.811871 -0.138608
v -0.139164 0.798555 0.139166
v -0.217197 0.883587 -0.217197
v -0.217197 0.883587 0.217195
v 0.217186 0.883588 0.217195
v 0.217186 0.883588 -0.217197
v -0.217197 1.218849 -0.217197
v -0.217197 1.218849 0.217195
v 0.217186 1.218849 0.217195
v 0.217186 1.218849 -0.217197
v 0.092400 -0.000891 -0.092407
v 0.092400 -0.000891 0.092406
v -0.092403 -0.000891 0.092406
v -0.092403 -0.000891 -0.092407
v -0.139164 0.645472 -0.139167
v 0.139160 0.645473 -0.139167
v 0.150749 0.665231 0.136145
v -0.139164 0.645472 0.139166
v -0.096771 0.614447 -0.096774
v 0.096768 0.614447 -0.096774
v 0.096768 0.614447 0.096773
v -0.096771 0.614447 0.096773
v -0.101967 0.434890 -0.092452
v 0.096768 0.419780 -0.096774
v 0.091256 0.434954 0.107212
v -0.096771 0.419780 0.096773
v -0.119968 0.371294 -0.119971
v 0.119965 0.371294 -0.119971
v 0.119965 0.371294 0.119970
v -0.119968 0.371294 0.119970
v -0.217197 0.994743 -0.130320
v -0.217197 0.980752 0.130317
v -0.217197 1.218849 0.130317
v -0.217197 1.218849 -0.130320
v -0.130321 0.980752 0.217195
v 0.130310 0.993446 0.217195
v 0.130310 1.218849 0.217195
v -0.130322 1.218849 0.217195
v 0.217186 0.980752 -0.130320
v 0.217186 0.980752 0.130317
v 0.217186 1.218849 -0.130320
v 0.217186 1.218849 0.130317
v -0.130321 0.980752 -0.217197
v 0.130310 0.980752 -0.217197
v -0.130322 1.218849 -0.217197
v 0.130310 1.218849 -0.217197
v -0.348309 1.049709 -0.107430
v -0.348309 1.035718 0.107427
v -0.348309 1.218849 0.107427
v -0.348309 1.218849 -0.107430
v -0.107433 1.035719 0.348306
v 0.107422 1.048412 0.348306
v 0.107422 1.218849 0.348306
v -0.107433 1.218849 0.348306
v 0.348297 1.048942 -0.107430
v 0.348297 1.035719 0.107427
v 0.348297 1.218849 -0.107430
v 0.348297 1.218849 0.107427
v -0.107433 1.035719 -0.348309
v 0.107422 1.035719 -0.348309
v -0.107433 1.218849 -0.348309
v 0.107422 1.218849 -0.348309
v -0.181652 1.281096 0.181649
v -0.181652 1.281096 0.108990
v -0.000004 1.281096 -0.000002
v -0.108994 1.281096 0.181649
v -0.089851 1.281096 0.291304
v 0.089840 1.281096 0.291304
v 0.108982 1.281096 0.181649
v 0.181641 1.281096 0.181649
v 0.181641 1.281096 0.108990
v 0.291294 1.281096 0.089846
v 0.291294 1.281096 -0.089849
v 0.181641 1.281096 -0.108993
v 0.181641 1.281096 -0.181652
v 0.108982 1.281096 -0.181652
v 0.089840 1.281096 -0.291306
v -0.089851 1.281096 -0.291306
v -0.108994 1.281096 -0.181652
v -0.181652 1.281096 -0.181652
v -0.181652 1.281096 -0.108993
v -0.291306 1.281096 -0.089849
v -0.291306 1.281096 0.089846
vn 0.9996 -0.0164 -0.0219
vn -0.0000 -1.0000 -0.0000
vn -0.9998 0.0118 -0.0158
vn -0.0044 -0.0033 1.0000
vn -0.0130 0.0097 -0.9999
vn -0.7044 -0.7096 -0.0151
vn 0.0098 -0.6981 0.7159
vn 0.7158 -0.6982 0.0099
vn -0.0138 -0.7068 -0.7072
vn -1.0000 -0.0000 -0.0000
vn -0.0000 -0.0000 1.0000
vn 1.0000 -0.0000 -0.0000
vn -0.0000 -0.0000 -1.0000
vn 0.9362 -0.3494 -0.0368
vn -0.0191 -0.4094 0.9121
vn -0.8844 -0.4667 0.0016
vn 0.0064 -0.4513 -0.8924
vn -0.0010 0.0018 -1.0000
vn 0.9990 0.0397 -0.0228
vn 0.0060 -0.0097 0.9999
vn -1.0000 0.0057 -0.0031
vn -0.0000 -0.8070 -0.5906
vn 0.6474 -0.7620 0.0161
vn 0.0334 -0.7089 0.7045
vn -0.5906 -0.8070 -0.0000
vn -0.0115 -0.0114 -0.9999
vn 0.9998 -0.0143 0.0144
vn -0.0285 0.0283 0.9992
vn -0.9998 0.0140 0.0141
vn 0.0052 0.4124 -0.9110
vn 0.9074 0.4203 -0.0031
vn -0.0340 0.3036 0.9522
vn -0.9386 0.3441 0.0235
vn -0.3861 -0.9209 -0.0542
vn -0.1720 -0.0000 0.9851
vn -0.1720 -0.0000 -0.9851
vn 0.0492 -0.9211 0.3862
vn 0.9851 -0.0000 0.1720
vn -0.9851 -0.0000 0.1720
vn 0.4250 -0.9049 -0.0252
vn 0.1720 -0.0000 -0.9851
vn 0.1720 -0.0000 0.9851
vn -0.0000 -0.9222 -0.3866
vn -0.9851 -0.0000 -0.1720
vn 0.9851 -0.0000 -0.1720
vn -0.0000 1.0000 -0.0000
vn -0.8684 0.4959 -0.0000
vn -0.0000 0.4959 0.8684
vn -0.9031 0.3995 0.1577
vn -0.0000 0.6754 0.7375
vn 0.9031 0.3995 0.1577
vn 0.8684 0.4959 -0.0000
vn 0.1577 0.3995 0.9031
vn 0.7375 0.6754 -0.0000
vn 0.1577 0.3995 -0.9031
vn -0.0000 0.4959 -0.8684
vn 0.9031 0.3995 -0.1577
vn -0.0000 0.6754 -0.7375
vn -0.9031 0.3995 -0.1577
vn -0.1577 0.3995 -0.9031
vn -0.7375 0.6754 -0.0000
vn -0.1577 0.3995 0.9031
vt 0.245885 0.279046
vt 0.245885 0.279046
vt 0.245885 0.279046
vt 0.245885 0.279046
vt 0.245885 0.279046
vt 0.245885 0.279046
vt 0.245885 0.279046
vt 0.245885 0.279046
vt 0.245885 0.279046
vt 0.245885 0.279046
vt 0.245885 0.279046
vt 0.245885 0.279046
vt 0.245885 0.279046
vt 0.245885 0.279046
vt 0.245885 0.279046
vt 0.245193 0.324026
vt 0.245885 0.279046
vt 0.245885 0.279046
vt 0.245885 0.279046
vt 0.245885 0.279046
vt 0.245885 0.279046
vt 0.245885 0.279046
vt 0.245539 0.228530
vt 0.245885 0.279046
vt 0.245539 0.228530
vt 0.245885 0.279046
vt 0.245539 0.228530
vt 0.245885 0.279046
vt 0.245539 0.228530
vt 0.245539 0.228530
vt 0.245539 0.228530
vt 0.245539 0.228530
vt 0.245539 0.228530
vt 0.245539 0.228530
vt 0.245539 0.228530
vt 0.245539 0.228530
vt 0.245539 0.228530
vt 0.245885 0.279046
vt 0.245539 0.228530
vt 0.245885 0.279046
vt 0.245539 0.228530
vt 0.245885 0.279046
vt 0.245539 0.228530
vt 0.245885 0.279046
vt 0.245539 0.228530
vt 0.245885 0.279046
vt 0.245193 0.324026
vt 0.245885 0.279046
vt 0.245193 0.324026
vt 0.245885 0.279046
vt 0.245193 0.324026
vt 0.245885 0.279046
vt 0.245193 0.324026
vt 0.245885 0.279046
vt 0.245193 0.324026
vt 0.245885 0.279046
vt 0.245193 0.324026
vt 0.245885 0.279046
vt 0.245193 0.324026
vt 0.245885 0.279046
vt 0.245193 0.324026
vt 0.245885 0.279046
vt 0.245193 0.324026
vt 0.245885 0.279046
vt 0.245193 0.324026
vt 0.245193 0.324026
vt 0.245885 0.279046
vt 0.245885 0.279046
vt 0.245193 0.324026
vt 0.245885 0.279046
vt 0.245193 0.324026
vt 0.245885 0.279046
vt 0.245193 0.324026
vt 0.245193 0.324026
vt 0.245885 0.279046
vt 0.245885 0.279046
vt 0.245193 0.324026
vt 0.245193 0.324026
vt 0.245193 0.324026
vt 0.245193 0.324026
vt 0.245193 0.324026
vt 0.245193 0.324026
vt 0.245193 0.324026
vt 0.245193 0.324026
vt 0.245193 0.324026
vt 0.245193 0.324026
vt 0.245193 0.324026
vt 0.245193 0.324026
vt 0.245193 0.324026
vt 0.245193 0.324026
vt 0.245193 0.324026
vt 0.245193 0.324026
vt 0.245193 0.324026
vt 0.245885 0.279046
vt 0.245885 0.279046
vt 0.245193 0.324026
vt 0.245885 0.279046
vt 0.245885 0.279046
vt 0.245193 0.324026
vt 0.245885 0.279046
vt 0.245193 0.324026
vt 0.245885 0.279046
vt 0.245193 0.324026
vt 0.245885 0.279046
vt 0.245193 0.324026
vt 0.245885 0.279046
vt 0.245193 0.324026
vt 0.245885 0.279046
vt 0.245193 0.324026
vt 0.245885 0.279046
vt 0.245193 0.324026
vt 0.245885 0.279046
vt 0.245193 0.324026
vt 0.245193 0.324026
vt 0.245885 0.279046
vt 0.245885 0.279046
vt 0.245885 0.279046
vt 0.245193 0.324026
vt 0.245885 0.279046
vt 0.245193 0.324026
vt 0.245885 0.279046
vt 0.245193 0.324026
vt 0.245193 0.324026
vt 0.245885 0.279046
vt 0.245885 0.279046
vt 0.245885 0.279046
vt 0.245193 0.324026
vt 0.245885 0.279046
vt 0.245193 0.324026
vt 0.245885 0.279046
vt 0.245193 0.324026
s 1
f 34/40/1 35/42/1 4/4/1 3/3/1
f 17/18/2 18/19/2 19/20/2 20/21/2
f 5/5/3 6/6/3 36/44/3 33/38/3
f 35/42/4 36/44/4 6/6/4 4/4/4
f 33/38/5 34/40/5 3/3/5 5/5/5
f 7/7/6 8/8/6 10/10/6 9/9/6
f 8/8/7 2/2/7 11/11/7 10/10/7
f 2/2/8 1/1/8 12/12/8 11/11/8
f 1/1/9 7/7/9 9/9/9 12/12/9
f 53/78/10 54/79/10 55/80/10 56/81/10
f 57/82/11 58/83/11 59/84/11 60/85/11
f 62/87/12 61/86/12 63/88/12 64/89/12
f 66/91/13 65/90/13 67/92/13 68/93/13
f 3/3/14 4/4/14 18/19/14 17/18/14
f 4/4/15 6/6/15 19/20/15 18/19/15
f 6/6/16 5/5/16 20/21/16 19/20/16
f 5/5/17 3/3/17 17/18/17 20/21/17
f 7/7/18 1/1/18 22/24/18 21/22/18
f 1/1/19 2/2/19 23/26/19 22/24/19
f 2/2/20 8/8/20 24/28/20 23/26/20
f 21/22/21 24/28/21 8/8/21 7/7/21
f 21/23/22 22/25/22 26/31/22 25/30/22
f 22/25/23 23/27/23 27/32/23 26/31/23
f 23/27/24 24/29/24 28/33/24 27/32/24
f 25/30/25 28/33/25 24/29/25 21/23/25
f 25/30/26 26/31/26 30/35/26 29/34/26
f 26/31/27 27/32/27 31/36/27 30/35/27
f 27/32/28 28/33/28 32/37/28 31/36/28
f 29/34/29 32/37/29 28/33/29 25/30/29
f 29/34/30 30/35/30 34/41/30 33/39/30
f 30/35/31 31/36/31 35/43/31 34/41/31
f 31/36/32 32/37/32 36/45/32 35/43/32
f 33/39/33 36/45/33 32/37/33 29/34/33
f 9/9/10 10/10/10 38/48/10 37/46/10
f 10/10/10 14/14/10 39/50/10 38/48/10
f 13/13/10 9/9/10 37/46/10 40/52/10
f 10/10/11 11/11/11 42/56/11 41/54/11
f 11/11/11 15/15/11 43/58/11 42/56/11
f 14/14/11 10/10/11 41/54/11 44/60/11
f 11/11/12 12/12/12 45/62/12 46/64/12
f 12/12/12 16/17/12 47/67/12 45/62/12
f 15/15/12 11/11/12 46/64/12 48/68/12
f 12/12/13 9/9/13 49/70/13 50/72/13
f 9/9/13 13/13/13 51/75/13 49/70/13
f 16/17/13 12/12/13 50/72/13 52/76/13
f 37/47/34 38/49/34 54/79/34 53/78/34
f 38/49/35 39/51/35 55/80/35 54/79/35
f 40/53/36 37/47/36 53/78/36 56/81/36
f 41/55/37 42/57/37 58/83/37 57/82/37
f 42/57/38 43/59/38 59/84/38 58/83/38
f 44/61/39 41/55/39 57/82/39 60/85/39
f 46/65/40 45/63/40 61/86/40 62/87/40
f 45/63/41 47/66/41 63/88/41 61/86/41
f 48/69/42 46/65/42 62/87/42 64/89/42
f 50/73/43 49/71/43 65/90/43 66/91/43
f 49/71/44 51/74/44 67/92/44 65/90/44
f 52/77/45 50/73/45 66/91/45 68/93/45
f 70/95/46 69/94/46 71/97/46
f 69/94/46 72/98/46 71/97/46
f 72/98/46 73/100/46 71/97/46
f 73/100/46 74/102/46 71/97/46
f 74/102/46 75/104/46 71/97/46
f 75/104/46 76/106/46 71/97/46
f 76/106/46 77/108/46 71/97/46
f 77/108/46 78/110/46 71/97/46
f 78/110/46 79/112/46 71/97/46
f 79/112/46 80/115/46 71/97/46
f 80/115/46 81/116/46 71/97/46
f 81/116/46 82/117/46 71/97/46
f 82/117/46 83/119/46 71/97/46
f 83/119/46 84/121/46 71/97/46
f 84/121/46 85/124/46 71/97/46
f 85/124/46 86/125/46 71/97/46
f 86/125/46 87/126/46 71/97/46
f 87/126/46 88/128/46 71/97/46
f 88/128/46 89/130/46 71/97/46
f 89/130/46 70/95/46 71/97/46
f 39/50/47 14/14/47 69/94/47 70/95/47
f 14/14/48 44/60/48 72/98/48 69/94/48
f 44/61/49 60/85/49 73/101/49 72/99/49
f 60/85/50 59/84/50 74/103/50 73/101/50
f 59/84/51 43/59/51 75/105/51 74/103/51
f 43/59/48 15/16/48 76/107/48 75/105/48
f 15/16/52 48/69/52 77/109/52 76/107/52
f 48/69/53 64/89/53 78/111/53 77/109/53
f 64/89/54 63/88/54 79/113/54 78/111/54
f 63/88/55 47/66/55 80/114/55 79/113/55
f 47/67/52 16/17/52 81/116/52 80/115/52
f 16/17/56 52/76/56 82/117/56 81/116/56
f 52/77/57 68/93/57 83/120/57 82/118/57
f 68/93/58 67/92/58 84/122/58 83/120/58
f 67/92/59 51/74/59 85/123/59 84/122/59
f 51/75/56 13/13/56 86/125/56 85/124/56
f 13/13/47 40/52/47 87/126/47 86/125/47
f 40/53/60 56/81/60 88/129/60 87/127/60
f 56/81/61 55/80/61 89/131/61 88/129/61
f 55/80/62 39/51/62 70/96/62 89/131/62
