# Blender v3.2.1 OBJ File: ''
# www.blender.org
o Cube.001
v 1.000000 1.000000 -1.000000
v -1.000000 1.000000 -1.000000
v -1.000000 1.000000 1.000000
v 1.000000 1.000000 1.000000
v 1.000000 -1.000000 1.000000
v -1.000000 -1.000000 1.000000
v -1.000000 -1.000000 -1.000000
v 1.000000 -1.000000 -1.000000
vt 1.017906 -0.017972
vt 2.053202 -0.017972
vt 2.053202 1.017324
vt 1.017906 1.017324
vt -0.017389 1.017324
vt 1.017906 2.052619
vt -0.017389 2.052619
vt -0.017389 -2.088563
vt 1.017906 -2.088563
vt 1.017906 -1.053267
vt -0.017389 -1.053267
vt -1.052685 -0.017972
vt -0.017389 -0.017972
vt -1.052685 1.017324
vn 0.0000 1.0000 0.0000
vn 0.0000 -0.0000 1.0000
vn -1.0000 -0.0000 0.0000
vn 0.0000 -1.0000 -0.0000
vn 1.0000 0.0000 0.0000
vn 0.0000 0.0000 -1.0000
s 1
f 1/1/1 2/2/1 3/3/1 4/4/1
f 5/5/2 4/4/2 3/6/2 6/7/2
f 6/8/3 3/9/3 2/10/3 7/11/3
f 7/12/4 8/13/4 5/5/4 6/14/4
f 8/13/5 1/1/5 4/4/5 5/5/5
f 7/11/6 2/10/6 1/1/6 8/13/6
